<svg xmlns="http://www.w3.org/2000/svg" width="140" height="41" viewBox="0 0 140 41" fill="none"><path d="M113.936 20.3546L105.745 7.19859L112.695 5.70922L119.397 14.6454L130.071 1.98582L139.451 0L122.872 19.1135L140 40.7092H127.34L117.411 25.5674L104.255 40.7092H95.8156L113.936 20.3546Z" fill="url(#paint0_linear)"></path><g filter="url(#filter0_f)"><path d="M106.328 29.3655L101.19 35.1735L106.172 34.6398L106.328 29.3655Z" fill="black" fill-opacity="0.5"></path></g><path d="M18.8892 28.5798H7.74016L5.89535 33.8957H0L10.0662 5.95749H16.6032L26.6695 33.8957H20.734L18.8892 28.5798ZM17.3652 24.1033L13.3147 12.4324L9.26412 24.1033H17.3652Z" fill="white"></path><path d="M38.9342 34.2554C37.1161 34.2554 35.4852 33.9356 34.0415 33.2961C32.5977 32.63 31.448 31.7373 30.5925 30.6182C29.7637 29.4991 29.3091 28.2601 29.2289 26.9011H34.8837C34.9906 27.7538 35.405 28.4599 36.1269 29.0195C36.8755 29.579 37.7979 29.8588 38.8941 29.8588C39.9636 29.8588 40.7924 29.6456 41.3806 29.2193C41.9955 28.793 42.303 28.2467 42.303 27.5806C42.303 26.8612 41.9287 26.3282 41.1801 25.9818C40.4582 25.6088 39.2951 25.2091 37.691 24.7828C36.0333 24.3831 34.6698 23.9701 33.6003 23.5437C32.5576 23.1174 31.6486 22.4646 30.8732 21.5853C30.1246 20.706 29.7503 19.5202 29.7503 18.0281C29.7503 16.8023 30.0979 15.6832 30.793 14.6707C31.5149 13.6581 32.5309 12.8588 33.8409 12.2726C35.1778 11.6863 36.7418 11.3932 38.5332 11.3932C41.1801 11.3932 43.2922 12.0594 44.8697 13.3917C46.4471 14.6973 47.316 16.4693 47.4764 18.7075H42.1025C42.0222 17.8282 41.6479 17.1354 40.9795 16.6292C40.3379 16.0962 39.4689 15.8298 38.3727 15.8298C37.3568 15.8298 36.568 16.0163 36.0066 16.3893C35.4719 16.7624 35.2045 17.282 35.2045 17.9481C35.2045 18.6942 35.5788 19.2671 36.3274 19.6668C37.076 20.0398 38.2391 20.4262 39.8165 20.8259C41.4207 21.2256 42.7441 21.6386 43.7868 22.0649C44.8296 22.4912 45.7252 23.1574 46.4738 24.0633C47.2492 24.9427 47.6502 26.1151 47.677 27.5806C47.677 28.8596 47.316 30.0054 46.5942 31.0179C45.899 32.0304 44.883 32.8298 43.5462 33.416C42.2361 33.9756 40.6988 34.2554 38.9342 34.2554Z" fill="white"></path><path d="M58.8229 16.3494V27.061C58.8229 27.8071 58.9967 28.3533 59.3442 28.6997C59.7185 29.0195 60.3335 29.1793 61.189 29.1793H63.7958V33.8957H60.2666C55.5343 33.8957 53.1681 31.6041 53.1681 27.021V16.3494H50.5213V11.753H53.1681V6.27724H58.8229V11.753H63.7958V16.3494H58.8229Z" fill="white"></path><path d="M73.4488 15.1903C74.1706 14.0179 75.1064 13.0986 76.2561 12.4324C77.4325 11.7663 78.7693 11.4332 80.2665 11.4332V17.3086H78.7827C77.0181 17.3086 75.6813 17.7216 74.7722 18.5477C73.8899 19.3737 73.4488 20.8125 73.4488 22.8643V33.8957H67.8341V11.753H73.4488V15.1903Z" fill="white"></path><path d="M82.6045 22.7444C82.6045 20.5061 83.0456 18.521 83.9279 16.789C84.837 15.057 86.0535 13.7248 87.5774 12.7921C89.1281 11.8595 90.8526 11.3932 92.7509 11.3932C94.4086 11.3932 95.8523 11.7263 97.0822 12.3925C98.3388 13.0586 99.3414 13.898 100.09 14.9105V11.753H105.745V33.8957H100.09V30.6582C99.3681 31.6974 98.3655 32.5634 97.0822 33.2562C95.8256 33.9223 94.3685 34.2554 92.7108 34.2554C90.8393 34.2554 89.1281 33.7757 87.5774 32.8165C86.0535 31.8572 84.837 30.5116 83.9279 28.7797C83.0456 27.021 82.6045 25.0093 82.6045 22.7444ZM100.09 22.8243C100.09 21.4654 99.8227 20.3063 99.2879 19.347C98.7532 18.3611 98.0313 17.615 97.1223 17.1088C96.2133 16.5759 95.2374 16.3094 94.1947 16.3094C93.152 16.3094 92.1895 16.5625 91.3072 17.0688C90.4249 17.5751 89.703 18.3212 89.1415 19.3071C88.6068 20.2663 88.3394 21.4121 88.3394 22.7444C88.3394 24.0767 88.6068 25.2491 89.1415 26.2616C89.703 27.2475 90.4249 28.0069 91.3072 28.5398C92.2162 29.0728 93.1787 29.3392 94.1947 29.3392C95.2374 29.3392 96.2133 29.0861 97.1223 28.5798C98.0313 28.0469 98.7532 27.3008 99.2879 26.3416C99.8227 25.3557 100.09 24.1832 100.09 22.8243Z" fill="white"></path><defs><filter id="filter0_f" x="97.0194" y="25.0484" width="13.4791" height="14.4422" filterUnits="userSpaceOnUse" color-interpolation-filters="sRGB"><feGaussianBlur stdDeviation="2.08511"></feGaussianBlur></filter><linearGradient id="paint0_linear" x1="118.156" y1="0" x2="118.156" y2="40.7092" gradientUnits="userSpaceOnUse"><stop stop-color="#82A5FF"></stop><stop offset="1" stop-color="#00FFE0"></stop></linearGradient></defs></svg>